<?xml version="1.0" encoding="UTF-8" standalone="no" ?>
<!DOCTYPE svg PUBLIC "-//W3C//DTD SVG 1.1//EN" "http://www.w3.org/Graphics/SVG/1.1/DTD/svg11.dtd">
<svg xmlns="http://www.w3.org/2000/svg" xmlns:xlink="http://www.w3.org/1999/xlink" version="1.1" width="354" height="282" viewBox="78 89 354 282" xml:space="preserve">
<desc>Created with Fabric.js 4.6.0</desc>
<defs>
</defs>
<g transform="matrix(1.33 0 0 1.33 324.12 216.76)" id="hZ1K8dF30NWrb7fQ5M2Tk"  >
<path style="stroke: none; stroke-width: 1; stroke-dasharray: none; stroke-linecap: butt; stroke-dashoffset: 0; stroke-linejoin: miter; stroke-miterlimit: 4; fill: rgb(142,122,170); fill-rule: evenodd; opacity: 1;" vector-effect="non-scaling-stroke"  transform=" translate(-179.77, -118.02)" d="M 204 28.6 C 199.2 30.7 196.2 33.7 193.5 39 C 191.6 42.7 189.9 52.4 184.5 88 C 178.3 129.9 175.3 148.4 172.9 160.8 L 171.8 166.1 L 168.4 160.4 C 166.5 157.3 162.3 151.8 158.9 148.2 C 146.7 135.1 144.8 130.9 149.6 127.1 C 152.6 124.8 158.2 124.4 164.2 126 C 168.8 127.3 171.3 126.2 173.6 121.8 C 175.8 117.6 174.8 113.2 170.4 108.2 C 168.1 105.4 165.5 103.7 162.7 102.9 C 160.4 102.2 157.5 100.7 156.2 99.6 C 154.2 97.8 152.5 97.5 146.2 97.5 C 137.4 97.6 130.7 100.2 122.2 107 C 115.3 112.4 113 117.8 113 128.3 C 113 137.8 114.9 144.5 118.8 148.7 C 120.2 150.2 123.8 155.5 126.8 160.4 C 132.9 170.4 133 172 127.5 177.2 C 124.7 179.7 122.5 180.8 117.4 181.7 C 113.7 182.4 109.7 183.6 108.3 184.5 C 105.2 186.5 102.9 191.9 103.7 195.1 C 104.5 198.6 108.8 202.8 112.9 204.1 C 114.9 204.7 118.5 206.1 120.8 207.2 C 129.9 211.5 152.7 207.8 162.1 200.6 C 165.8 197.8 166.7 197.5 167.8 198.6 C 168.5 199.4 170.8 200 172.8 200 C 174.9 200 177.1 200.5 177.7 201.1 C 179.6 203 191.5 201.8 194.7 199.4 C 198.9 196.2 202.7 190.2 204.5 183.5 C 205.4 180.2 206.3 176.9 206.6 176.1 C 206.9 175.2 208.1 176.3 209.9 179.2 C 213.4 184.8 216 186.8 225.5 191.5 C 231.6 194.5 233.9 195.1 236.7 194.7 C 241.2 193.9 243.7 191.6 245.1 187 C 246.5 182.5 245.7 178.6 240.6 164.5 C 236.6 153.3 236.2 148.9 238.7 139.2 C 239.9 134.3 242 130.1 246.6 123.5 C 254.7 111.5 256 108.9 256 104.1 C 256 99.8 254.2 98 249.8 98 C 248.5 98 246.9 97.1 246.2 96 C 243.1 91 231.3 95 222.3 104.1 C 219.9 106.4 218 108 218 107.6 C 218 107.3 220.3 94.3 223.1 78.7 C 226.7 58.9 228 49.2 227.6 46.1 C 227 41.7 220.8 31 218.9 31 C 218.3 31 218.2 31.6 218.5 32.2 C 218.9 32.9 218.3 32.5 217.3 31.3 C 215.6 29.2 211.1 27 208.7 27 C 208 27.1 205.9 27.8 204 28.6 z M 210.6 35.1 C 210.9 35.7 209.8 37.6 208.1 39.4 C 206.4 41.2 204.1 44.9 203.1 47.6 C 202.1 50.3 195.9 84.8 189.4 124.2 C 178.2 191.5 177.4 196 175.5 195.9 C 170.2 195.8 170 195 172.6 187.6 C 173.9 183.8 175 179.4 175 177.9 C 175 176.4 175.9 170.9 177 165.6 C 178.1 160.3 179.7 151.4 180.6 145.8 C 181.5 140.2 182.8 134.7 183.5 133.6 C 185.3 130.9 189.2 107 192.5 79.5 C 196.6 44 197.8 39.4 203.2 35.6 C 205.8 33.8 209.6 33.5 210.6 35.1 z M 244 97.5 C 245 98.7 244.7 99.1 242.4 100 C 237.8 101.8 230.5 107.9 226.4 113.4 C 221 120.7 217.8 124 216.8 123.4 C 215.1 122.3 216 115.4 218.4 112.2 C 223.5 105.2 236.1 96 240.6 96 C 241.8 96 243.3 96.7 244 97.5 z M 153.5 100.4 C 155.1 101.6 154.9 101.8 150.7 102.2 C 140.7 103.3 126.9 113 123.4 121.2 C 121.2 126.7 121.2 140.4 123.5 145.3 C 124.3 147.1 128.2 152.4 132.1 157 C 142.5 169.5 144.3 172.6 143.6 176.8 C 142.6 183.2 136.2 188 128.6 188 C 120.8 188 114 192 114 196.7 C 114 199.6 113.3 199.6 110.3 196.8 C 104.5 191.4 109.9 186 121 186 C 134.3 186 140.9 176.9 135.6 165.9 C 134.7 164 130.2 157.7 125.5 152 C 120.8 146.2 116.5 139.9 115.9 137.9 C 115.3 135.9 114.9 130.7 115.1 126.3 C 115.4 119.7 116 117.7 118.2 114.2 C 125.1 103.8 146.6 95.3 153.5 100.4 z M 215.1 175.7 C 216.8 179.5 218.7 183.4 219.3 184.5 C 219.9 185.7 218.8 185.2 216.5 183 C 212.3 179 208.6 172.5 209.4 170.4 C 210.4 167.7 211.9 169.1 215.1 175.7 z" stroke-linecap="round" />
</g>
<g transform="matrix(1.33 0 0 1.33 152.49 245.94)" id="RTW0AIhM1CPTm2khnTaCW"  >
<path style="stroke: none; stroke-width: 1; stroke-dasharray: none; stroke-linecap: butt; stroke-dashoffset: 0; stroke-linejoin: miter; stroke-miterlimit: 4; fill: rgb(142,122,170); fill-rule: evenodd; opacity: 1;" vector-effect="non-scaling-stroke"  transform=" translate(-51.05, -139.9)" d="M 75 54 C 73.4 55.7 71.6 58.7 70.9 60.7 C 70.3 62.7 66.9 68.6 63.5 73.9 C 60.1 79.2 56.5 85.1 55.5 87 C 54.5 88.9 53.1 91.6 52.3 93 C 47.5 101.4 42 114.2 42.1 116.7 C 42.2 118.4 38.8 126.9 33.5 138 C 28.7 148.2 19.2 168.7 12.4 183.7 C 1.8 206.9 -9.53674e-7 211.6 -9.53674e-7 215.9 C -9.53674e-7 219.9 0.399999 221.2 2.2 222.4 C 3.4 223.3 5.3 224 6.3 224 C 7.4 224 9.5 225.1 11.2 226.5 C 14.5 229.3 15.7 229.5 21.2 227.8 C 26.8 226.2 34.3 219 39 211 C 43.2 203.7 48.1 199.2 55.1 196 C 63.9 192.1 68.3 193.9 69.6 202 C 70.4 206.8 75.3 213 78.4 213 C 79.2 213 81.6 214.2 83.7 215.6 C 86.6 217.6 88.3 218 90.9 217.6 C 98.5 216.4 102.1 209.3 102.1 195.7 C 102 183.5 93.4 60 92.5 57.7 C 92.1 56.8 90.7 56 89.4 56 C 88.2 56 86.7 56.8 86.1 57.7 C 85 59.7 84.8 59.3 83.6 53.7 C 82.7 49.9 78.7 50 75 54 z M 82 58.6 C 82.7 63.1 82.1 64.5 46.3 138.8 C 26.3 180.4 9.7 215.4 9.4 216.7 C 9 218.1 8 219 6.8 219 C 4.1 219 4.8 216.4 11.5 202 C 14.4 195.7 22.1 178.1 28.5 163 C 34.9 147.9 41.4 133.5 42.9 131 C 48 122.7 50.7 117.6 54.3 108.9 C 58.2 99.7 58.6 98.5 57 99.5 C 55.5 100.5 57 97 67 76.9 C 76.4 58.3 79.8 52.4 80.8 53.4 C 81.1 53.7 81.6 56.1 82 58.6 z M 77.5 143.1 C 77.5 155.4 77.3 156.9 75 161.5 C 70.8 170 63.8 170.4 63.2 162.2 C 63 159.2 64.1 155 67.4 146.6 C 76.2 124.1 77.5 123.6 77.5 143.1 z M 75.6 199.2 C 77.8 201.5 80.4 211 78.9 211 C 76.5 211 73 206 71.7 200.8 C 70.5 195.7 70.5 195.2 71.9 196 C 72.8 196.4 74.5 197.9 75.6 199.2 z" stroke-linecap="round" />
</g>
</svg>